<?xml version="1.0" encoding="utf-8"?>
<!-- Generator: Adobe Illustrator 27.5.0, SVG Export Plug-In . SVG Version: 6.00 Build 0)  -->
<svg version="1.1" xmlns="http://www.w3.org/2000/svg" xmlns:xlink="http://www.w3.org/1999/xlink" x="0px" y="0px"
	 viewBox="0 0 750 500" style="enable-background:new 0 0 750 500;" xml:space="preserve">
<g id="Background_Complete">
	<g>
		<g>
			<g>
				<g>
					<path style="fill:#E0E0E0;" d="M459.672,200.129c-0.013,2.888-2.365,5.218-5.253,5.204c-2.887-0.014-5.218-2.365-5.204-5.253
						c0.013-2.887,2.365-5.217,5.253-5.204C457.355,194.889,459.685,197.241,459.672,200.129z"/>
				</g>
				<g>
					<g>
						<path style="fill:#E0E0E0;" d="M443.994,193.408c5.742-6.029,15.074-6.212,20.964-0.277c2.669,2.69,6.848-1.448,4.178-4.139
							c-8.08-8.144-21.344-8.096-29.28,0.238C437.245,191.97,441.377,196.156,443.994,193.408L443.994,193.408z"/>
					</g>
				</g>
				<g>
					<g>
						<path style="fill:#E0E0E0;" d="M426.235,169.07c7.951-6.874,17.442-11.199,28.07-11.226
							c10.534-0.026,20.922,3.714,28.637,10.959c2.756,2.589,6.944-1.541,4.178-4.139c-8.838-8.3-20.69-12.731-32.788-12.701
							c-12.23,0.03-23.099,5.03-32.237,12.929C419.227,167.372,423.382,171.537,426.235,169.07L426.235,169.07z"/>
					</g>
				</g>
				<g>
					<g>
						<path style="fill:#E0E0E0;" d="M433.243,182.558c5.33-5.762,12.8-9.371,20.694-9.551c8.11-0.185,15.939,3.155,21.577,8.947
							c2.644,2.716,6.821-1.424,4.178-4.139c-6.672-6.854-16.125-10.908-25.728-10.689c-9.391,0.214-18.491,4.368-24.861,11.254
							C426.538,181.154,430.666,185.343,433.243,182.558L433.243,182.558z"/>
					</g>
				</g>
			</g>
		</g>
	</g>
	<g>
		<polygon style="fill:#EBEBEB;" points="57.634,280.05 88.517,252.807 105.102,264.912 140.41,228.475 192.313,279.914 		"/>
	</g>
	<g>
		<polygon style="fill:#EBEBEB;" points="489.309,280.05 536.31,254.263 599.603,269.328 639.189,228.475 691.092,279.914 		"/>
	</g>
	<g>
		<g>
			<g>
				<g>
					<path style="fill:#EBEBEB;" d="M699.24,182.356c0.909-6.6-8.406-12.029-15.405-12.593c-3.338-0.269-6.805,0.241-9.966-0.861
						c-6.851-2.388-9.587-11.239-16.272-14.058c-4.998-2.108-10.751-0.231-15.596,2.207c-4.845,2.438-9.633,5.507-15.046,5.854
						c-4.708,0.301-9.821-1.445-13.94,0.855c-3.07,1.714-4.678,5.251-7.507,7.338c-2.768,2.041-6.379,2.474-9.813,2.661
						c-3.434,0.187-6.99,0.221-10.117,1.653c-3.127,1.432-5.714,4.739-5.065,8.116L699.24,182.356z"/>
				</g>
			</g>
		</g>
	</g>
	<g>
		<g>
			<g>
				<g>
					<path style="fill:#F5F5F5;" d="M169.643,81.822c0.843-6.125-7.801-11.163-14.296-11.686c-3.097-0.25-6.315,0.224-9.249-0.799
						c-6.358-2.216-8.897-10.43-15.101-13.046c-4.638-1.956-9.977-0.215-14.473,2.048c-4.496,2.263-8.939,5.111-13.963,5.432
						c-4.369,0.28-9.114-1.341-12.937,0.794c-2.849,1.59-4.341,4.873-6.966,6.809c-2.569,1.895-5.919,2.296-9.106,2.469
						c-3.187,0.173-6.487,0.206-9.388,1.534c-2.902,1.329-5.303,4.397-4.701,7.532L169.643,81.822z"/>
				</g>
			</g>
		</g>
	</g>
	<g>
		<g>
			<g>
				<g>
					<path style="fill:#F5F5F5;" d="M360.371,108.871c0.522-3.795-4.834-6.917-8.859-7.242c-1.919-0.155-3.913,0.139-5.731-0.495
						c-3.94-1.373-5.513-6.463-9.357-8.084c-2.874-1.212-6.183-0.133-8.969,1.269c-2.786,1.402-5.539,3.167-8.652,3.366
						c-2.708,0.173-5.648-0.831-8.017,0.492c-1.765,0.986-2.69,3.02-4.317,4.22c-1.592,1.174-3.668,1.423-5.643,1.53
						c-1.975,0.107-4.019,0.127-5.818,0.951c-1.798,0.824-3.286,2.725-2.913,4.667L360.371,108.871z"/>
				</g>
			</g>
		</g>
	</g>
	<g>
		<g>
			<g>
				<g>
					<path style="fill:#F5F5F5;" d="M644.706,90.745c0.523-3.795-4.834-6.917-8.859-7.242c-1.919-0.155-3.913,0.139-5.731-0.495
						c-3.94-1.373-5.513-6.463-9.357-8.084c-2.874-1.212-6.182-0.133-8.969,1.269c-2.786,1.402-5.539,3.167-8.652,3.366
						c-2.708,0.173-5.648-0.831-8.017,0.492c-1.765,0.986-2.69,3.02-4.317,4.22c-1.592,1.174-3.668,1.423-5.643,1.53
						c-1.975,0.107-4.019,0.127-5.818,0.951c-1.798,0.824-3.286,2.725-2.913,4.667L644.706,90.745z"/>
				</g>
			</g>
		</g>
	</g>
	<g>
		<g>
			<g>
				<path style="fill:#E0E0E0;" d="M519.086,75.306c-0.019,0.052-0.558-0.145-1.559-0.347c-0.996-0.199-2.484-0.372-4.281-0.113
					c-1.784,0.254-3.889,0.982-5.728,2.507c-1.837,1.498-3.407,3.757-4.035,6.429l-0.018,0.071l-0.245,0.952l-0.366-0.903
					c-1.029-2.542-2.856-4.568-4.838-5.861c-1.987-1.317-4.127-1.872-5.92-2.01c-3.642-0.248-5.773,0.889-5.798,0.737
					c-0.014-0.031,0.485-0.32,1.473-0.64c0.983-0.316,2.483-0.636,4.354-0.55c1.857,0.083,4.11,0.614,6.211,1.966
					c2.094,1.327,4.028,3.438,5.113,6.118l-0.611,0.049l0.019-0.075c0.665-2.829,2.337-5.194,4.288-6.743
					c1.957-1.579,4.185-2.294,6.041-2.498c1.872-0.21,3.397,0.042,4.396,0.32C518.59,74.998,519.1,75.276,519.086,75.306z"/>
			</g>
		</g>
	</g>
	<g>
		<g>
			<g>
				<path style="fill:#E0E0E0;" d="M119.914,162.532c0.038,0.039-0.5,0.594-1.418,1.638c-0.919,1.042-2.174,2.622-3.482,4.728
					c-2.632,4.157-5.265,10.773-5.175,18.361c0,0.079-0.001,0.158-0.002,0.231l-0.638,0.053c-1.1-7.464-5.016-13.41-8.453-16.849
					c-3.457-3.512-6.267-4.875-6.174-5.006c0.011-0.019,0.185,0.061,0.507,0.232c0.316,0.18,0.807,0.41,1.383,0.797
					c1.182,0.726,2.815,1.922,4.603,3.657c1.791,1.729,3.686,4.056,5.298,6.944c1.616,2.879,2.896,6.345,3.47,10.132l-0.638,0.053
					c0-0.074,0.001-0.155,0.002-0.236c-0.093-7.745,2.668-14.464,5.433-18.612c1.376-2.103,2.699-3.656,3.682-4.654
					c0.474-0.516,0.896-0.864,1.162-1.118C119.748,162.637,119.899,162.516,119.914,162.532z"/>
			</g>
		</g>
	</g>
</g>
<g id="Background_Simple" style="display:none;">
	<g style="display:inline;">
		<path style="fill:#F5F5F5;" d="M451.689,80.662l-1.565,2.539c-13.193,21.404-13.984,48.301-1.257,69.72
			c1.636,2.753,3.471,5.389,5.5,7.878c14.607,17.921,38.787,27.644,61.992,24.928c13.648-1.597,27.456-7.159,40.7-3.714
			c17.237,4.483,26.768,22.192,34.331,38.18s17.147,33.685,34.404,38.093c10.808,2.761,22.464-0.569,32.164-6.202
			c25.681-14.912,39.872-45.386,39.633-74.784c-0.239-29.398-13.283-57.479-31.546-80.441
			C640.46,64.693,603.15,40.744,561.991,35.936C520.831,31.127,476.395,47.319,451.689,80.662z"/>
	</g>
	<g style="display:inline;">
		<circle style="fill:#F5F5F5;" cx="111.643" cy="119.435" r="65.261"/>
	</g>
</g>
<g id="Mountains">
	<g>
		<g>
			<g>
				<path style="fill:#455A64;" d="M714.192,277.921c0,0.144-147.143,0.26-328.611,0.26c-181.531,0-328.642-0.116-328.642-0.26
					c0-0.144,147.111-0.26,328.642-0.26C567.049,277.66,714.192,277.777,714.192,277.921z"/>
			</g>
		</g>
		<g>
			<g>
				<path style="fill:#263238;" d="M286.23,289.453c0,0.144-40.696,0.26-90.886,0.26c-50.207,0-90.894-0.117-90.894-0.26
					c0-0.144,40.687-0.26,90.894-0.26C245.534,289.193,286.23,289.309,286.23,289.453z"/>
			</g>
		</g>
		<g>
			<g>
				<path style="fill:#263238;" d="M252.162,298.295c0,0.144-19.562,0.26-43.688,0.26c-24.134,0-43.692-0.117-43.692-0.26
					s19.558-0.26,43.692-0.26C232.6,298.035,252.162,298.151,252.162,298.295z"/>
			</g>
		</g>
		<g>
			<g>
				<path style="fill:#FF725E;" d="M238.432,224.879c8.349,12.806,25.312,19.296,40.076,15.332
					c14.764-3.964,26.196-18.077,27.008-33.342c0.812-15.265-9.057-30.512-23.318-36.02c-14.26-5.508-31.816-0.856-41.477,10.992
					c-9.661,11.848-10.684,29.981-2.418,42.84"/>
			</g>
			<g>
				<polygon style="fill:#455A64;" points="183.347,278.002 226.792,224.88 252.358,249.252 313.88,178.714 342.994,166.716 
					400.735,235.691 421.301,227.702 455.088,257.146 468.16,247.379 506.238,277.254 				"/>
			</g>
		</g>
	</g>
</g>
<g id="Plant">
	<g>
		<g>
			<g>
				<path style="fill:#FF725E;" d="M75.378,401.051c2.099,2.847,6.018,1.791,7.802-0.021c1.784-1.813,2.494-4.395,3.138-6.856
					c1.47-5.623,2.946-11.521,1.612-17.177c-0.399-1.691-1.076-3.371-2.301-4.603c-1.225-1.232-3.081-1.937-4.749-1.452
					c-1.975,0.574-3.162,2.551-4.01,4.424c-2.491,5.508-3.733,11.576-3.605,17.62C73.324,395.808,73.729,398.759,75.378,401.051"/>
			</g>
		</g>
		<g style="opacity:0.2;">
			<g>
				<path d="M75.378,401.051c2.099,2.847,6.018,1.791,7.802-0.021c1.784-1.813,2.494-4.395,3.138-6.856
					c1.47-5.623,2.946-11.521,1.612-17.177c-0.399-1.691-1.076-3.371-2.301-4.603c-1.225-1.232-3.081-1.937-4.749-1.452
					c-1.975,0.574-3.162,2.551-4.01,4.424c-2.491,5.508-3.733,11.576-3.605,17.62C73.324,395.808,73.729,398.759,75.378,401.051"/>
			</g>
		</g>
		<g>
			<g>
				<path style="fill:#FF725E;" d="M83.337,415.534c3.275-1.793,7.175-2.111,10.873-1.592c1.986,0.279,4.063,0.82,5.446,2.273
					c1.382,1.453,1.702,4.062,0.187,5.377c-0.902,0.783-2.182,0.929-3.375,0.945c-2.884,0.037-6.095-0.392-8.355,1.399
					c-1.29,1.022-2.124,2.688-3.683,3.213c-1.525,0.514-3.282-0.351-4.131-1.718c-0.849-1.367-0.919-3.101-0.577-4.673
					C79.721,420.758,80.038,417.34,83.337,415.534z"/>
			</g>
		</g>
		<g>
			<g>
				<path style="fill:#FF725E;" d="M69.91,405.344c2.138-2.668,2.463-6.49,1.403-9.74c-1.06-3.25-3.342-5.981-5.949-8.193
					c-3.057-2.593-6.624-4.582-10.436-5.818c-1.501-0.487-3.08-0.861-4.646-0.673c-1.566,0.188-3.127,1.03-3.825,2.444
					c-1.032,2.091,0.067,4.57,1.24,6.586c2.066,3.552,4.412,6.94,7.009,10.124c2.089,2.561,4.472,5.08,7.588,6.185
					c3.116,1.104,6.319,0.887,7.902-1.293"/>
			</g>
		</g>
		<g>
			<g>
				<g>
					<path style="fill:#263238;" d="M76.311,444.752c0.038,0.001,0.088-0.469,0.151-1.321c0.07-0.96,0.157-2.166,0.262-3.601
						c0.13-1.516,0.307-3.32,0.679-5.289c0.371-1.964,0.974-4.098,1.763-6.266c0.819-2.156,1.834-4.123,3.038-5.705
						c1.195-1.589,2.601-2.752,3.933-3.436c1.327-0.697,2.525-0.996,3.355-1.136c0.838-0.107,1.306-0.185,1.306-0.222
						c0-0.037-0.472-0.032-1.334,0.012c-0.854,0.078-2.103,0.325-3.503,1.004c-1.405,0.665-2.898,1.848-4.153,3.47
						c-1.265,1.616-2.318,3.626-3.151,5.821c-0.803,2.206-1.396,4.361-1.747,6.367c-0.35,2.003-0.488,3.826-0.57,5.353
						c-0.077,1.528-0.09,2.765-0.089,3.619C76.253,444.278,76.274,444.751,76.311,444.752z"/>
				</g>
			</g>
		</g>
		<g>
			<g>
				<g>
					<path style="fill:#263238;" d="M76.491,441.982c0.019-0.001,0.025-0.212,0.02-0.612c-0.012-0.459-0.028-1.037-0.047-1.746
						c-0.041-1.516-0.094-3.709-0.08-6.42c0.001-5.421,0.285-12.91,0.984-21.152c0.706-8.245,1.728-15.67,2.694-21.003
						c0.227-1.336,0.458-2.54,0.678-3.594c0.209-1.056,0.386-1.967,0.562-2.704c0.149-0.694,0.27-1.259,0.367-1.708
						c0.078-0.392,0.11-0.601,0.092-0.605c-0.018-0.005-0.086,0.194-0.198,0.578c-0.122,0.443-0.277,1.001-0.466,1.686
						c-0.207,0.732-0.416,1.637-0.653,2.69c-0.249,1.05-0.507,2.252-0.759,3.587c-1.066,5.328-2.15,12.766-2.858,21.028
						c-0.701,8.259-0.924,15.769-0.827,21.201c0.034,2.716,0.146,4.913,0.252,6.428c0.061,0.708,0.11,1.285,0.15,1.743
						C76.442,441.775,76.472,441.983,76.491,441.982z"/>
				</g>
			</g>
		</g>
		<g>
			<g>
				<g>
					<path style="fill:#263238;" d="M76.173,427.516c0.037-0.002,0.015-0.651-0.058-1.824c-0.096-1.171-0.299-2.862-0.68-4.929
						c-0.401-2.063-0.95-4.51-1.784-7.163c-0.796-2.664-1.872-5.535-3.22-8.448c-2.643-5.865-6.156-10.626-9.182-13.555
						c-0.712-0.779-1.497-1.335-2.128-1.883c-0.326-0.262-0.615-0.524-0.907-0.731c-0.294-0.192-0.567-0.371-0.821-0.536
						c-0.988-0.641-1.541-0.978-1.56-0.946c-0.084,0.121,2.212,1.397,5.145,4.368c2.921,2.965,6.338,7.695,8.96,13.511
						c1.337,2.889,2.418,5.732,3.236,8.369c0.855,2.627,1.439,5.048,1.885,7.089c0.427,2.046,0.686,3.718,0.846,4.877
						C76.042,426.875,76.135,427.518,76.173,427.516z"/>
				</g>
			</g>
		</g>
	</g>
</g>
<g id="Character">
	<g>
		<g>
			<g>
				<g>
					<g>
						<g>
							<g>
								<g>
									<g>
										<g>
											<g>
												<g>
													<path style="fill:#FF725E;" d="M302.38,392.542l-22.021,20.406c0,0-28.138-15.53-32.574-12.155l38.033,44.119
														l35.616-30.387L302.38,392.542z"/>
												</g>
											</g>
										</g>
									</g>
								</g>
							</g>
						</g>
					</g>
				</g>
			</g>
			<g>
				<g>
					<g>
						<g>
							<g>
								<g>
									<g>
										<g>
											<g>
												<g>
													<g>
														<path style="fill:#E0E0E0;" d="M294.031,424.943c0.503,1.055,0.051,2.473-0.982,3.018
															c-1.034,0.546-2.479,0.099-3-0.948c-0.521-1.046-0.031-2.764,1.057-3.191c1.088-0.426,2.757,0.191,3.012,1.332"/>
													</g>
												</g>
											</g>
										</g>
									</g>
								</g>
							</g>
						</g>
					</g>
				</g>
			</g>
			<g>
				<g>
					<g>
						<g>
							<g>
								<g>
									<g>
										<g>
											<g>
												<g>
													<path style="fill:#263238;" d="M285.817,444.912l3.438-2.933l-37.731-41.373c0,0-2.548-1.227-3.74,0.187
														L285.817,444.912z"/>
												</g>
											</g>
										</g>
									</g>
								</g>
							</g>
						</g>
					</g>
				</g>
			</g>
			<g>
				<g>
					<g>
						<g>
							<g>
								<g>
									<g>
										<g>
											<g>
												<g>
													<g>
														<path style="fill:#263238;" d="M279.967,412.04c-0.21,0.193,0.622,1.354,0.843,3.011
															c0.264,1.652-0.198,3.003,0.058,3.127c0.213,0.162,1.224-1.269,0.921-3.271
															C281.504,412.904,280.124,411.823,279.967,412.04z"/>
													</g>
												</g>
											</g>
										</g>
									</g>
								</g>
							</g>
						</g>
					</g>
				</g>
			</g>
			<g>
				<g>
					<g>
						<g>
							<g>
								<g>
									<g>
										<g>
											<g>
												<g>
													<g>
														<path style="fill:#263238;" d="M274.064,409.062c-0.251,0.131,0.187,1.38-0.093,2.897
															c-0.236,1.525-1.062,2.56-0.867,2.766c0.14,0.231,1.531-0.707,1.843-2.6
															C275.276,410.235,274.273,408.89,274.064,409.062z"/>
													</g>
												</g>
											</g>
										</g>
									</g>
								</g>
							</g>
						</g>
					</g>
				</g>
			</g>
			<g>
				<g>
					<g>
						<g>
							<g>
								<g>
									<g>
										<g>
											<g>
												<g>
													<g>
														<path style="fill:#263238;" d="M266.26,411.208c0.123,0.235,1.458-0.393,2.161-1.963
															c0.714-1.565,0.304-2.982,0.046-2.919c-0.282,0.031-0.351,1.231-0.948,2.511
															C266.952,410.131,266.096,410.976,266.26,411.208z"/>
													</g>
												</g>
											</g>
										</g>
									</g>
								</g>
							</g>
						</g>
					</g>
				</g>
			</g>
			<g>
				<g>
					<g>
						<g>
							<g>
								<g>
									<g>
										<g>
											<g>
												<g>
													<g>
														<path style="fill:#263238;" d="M285.501,407.946c-0.118,0.259,1.031,0.992,1.998,2.281
															c0.993,1.269,1.401,2.569,1.683,2.522c0.264-0.01,0.263-1.622-0.897-3.125
															C287.137,408.114,285.58,407.694,285.501,407.946z"/>
													</g>
												</g>
											</g>
										</g>
									</g>
								</g>
							</g>
						</g>
					</g>
				</g>
			</g>
		</g>
	</g>
	<g>
		<g>
			<g>
				<path style="fill:#263238;" d="M540.185,151.361c-1.759-1.005-3.01-2.854-3.289-4.86c-0.279-2.007,0.421-4.126,1.84-5.572
					c1.107-1.128,2.596-1.844,3.626-3.042c0.855-0.995,1.332-2.251,1.99-3.385c2.111-3.642,6.176-5.964,10.369-6.338
					c4.193-0.374,8.444,1.083,11.801,3.623c1.334,1.009,2.602,2.217,4.215,2.657c1.563,0.427,3.218,0.07,4.838,0.066
					c3.844-0.009,7.62,2.16,9.549,5.485c1.929,3.325,1.938,7.679,0.023,11.012c4.158,1.503,6.882,6.214,6.111,10.567
					c-0.771,4.353-4.948,7.842-9.369,7.825c-2.732-0.01-5.304-1.186-7.812-2.27c-10.156-4.386-20.819-7.597-31.709-9.548"/>
			</g>
		</g>
		<g>
			<g>
				<path style="fill:#FF725E;" d="M584.594,218.734c5.22-5.899,8.262-13.685,8.423-21.56c0.161-7.876-1.257-17.681-6.232-23.788
					c3.336-3.738,1.861-7.807-0.647-12.144c-2.508-4.337-6.885-7.275-11.412-9.42c-6.741-3.193-14.154-4.959-21.61-5.149
					c-6.082-0.155-14.166,1.004-14.918,5.395c-0.785,4.579,2.217,6.574,2.217,6.574s-6.003,1.808-11.197,6.951
					c-7.475,7.401-10.316,14.803-9.172,22.985c1.143,8.182,3.012,14.541,8.011,19.662"/>
			</g>
		</g>
		<g>
			<g>
				<g>
					<g>
						<path style="fill:#455A64;" d="M533.073,217.808c-0.81-0.787-1.951-1.504-3.1-1.82l0.228-0.026
							c-0.214-0.047-0.431-0.061-0.648-0.076c-0.837-0.153-1.655-0.069-2.328,0.41l0.022-0.002
							c-1.259,0.538-2.343,1.536-2.899,2.796c-0.968,2.191-0.429,4.897,1.119,6.725c1.345,1.589,3.568,2.562,5.563,1.968
							c1.833-0.545,3.124-2.299,3.556-4.162C535.06,221.581,534.574,219.267,533.073,217.808z"/>
					</g>
				</g>
			</g>
			<g>
				<g>
					<g>
						<g>
							<g>
								<g>
									<g>
										<g>
											<path style="fill:#AB6E65;" d="M582.143,245.383l1.936-63.046c-0.01-3.181-2.451-5.825-5.621-6.088l-32.689-7.479
												c-10.434-0.865-17.065,12.109-17.486,22.57c-0.468,11.622-0.582,25.831,0.99,34.459
												c3.159,17.35,16.556,19.264,16.556,19.264c0.003-0.059,0.36,12.077,0.578,18.403l2.385,25.312L582.143,245.383z"/>
										</g>
									</g>
								</g>
							</g>
						</g>
						<g>
							<g>
								<g>
									<g>
										<g>
											<g>
												<g>
													<g>
														<g>
															<g>
																<g>
																	<g>
																		<g>
																			<g>
																				<g>
																					<g>
																						<g>
																							<g>
																								<g>
																									<g>
																										<g>
																											<path style="fill:#263238;" d="M532.334,205.788c-0.015,1.18,0.972,2.166,2.204,2.204
																												c1.23,0.038,2.241-0.885,2.256-2.066c0.015-1.18-0.972-2.167-2.202-2.206
																												C533.36,203.683,532.348,204.608,532.334,205.788z"/>
																										</g>
																									</g>
																								</g>
																							</g>
																						</g>
																					</g>
																				</g>
																			</g>
																		</g>
																	</g>
																</g>
															</g>
															<g>
																<g>
																	<g>
																		<g>
																			<g>
																				<g>
																					<g>
																						<g>
																							<g>
																								<g>
																									<g>
																										<g>
																											<g>
																												<path style="fill:#263238;" d="M531.531,198.657c0.283,0.285,1.947-1.005,4.35-1.053
																													c2.4-0.083,4.192,1.114,4.446,0.814c0.125-0.133-0.169-0.652-0.95-1.194
																													c-0.768-0.539-2.07-1.052-3.567-1.012c-1.497,0.042-2.743,0.622-3.454,1.202
																													C531.63,197.997,531.391,198.53,531.531,198.657z"/>
																											</g>
																										</g>
																									</g>
																								</g>
																							</g>
																						</g>
																					</g>
																				</g>
																			</g>
																		</g>
																	</g>
																</g>
															</g>
														</g>
														<g>
															<g>
																<g>
																	<g>
																		<g>
																			<g>
																				<g>
																					<g>
																						<g>
																							<g>
																								<g>
																									<g>
																										<g>
																											<path style="fill:#263238;" d="M554.848,205.796c-0.015,1.18,0.972,2.166,2.204,2.204
																												c1.23,0.038,2.241-0.885,2.256-2.065c0.015-1.18-0.972-2.167-2.202-2.206
																												C555.874,203.691,554.862,204.616,554.848,205.796z"/>
																										</g>
																									</g>
																								</g>
																							</g>
																						</g>
																					</g>
																				</g>
																			</g>
																		</g>
																	</g>
																</g>
															</g>
															<g>
																<g>
																	<g>
																		<g>
																			<g>
																				<g>
																					<g>
																						<g>
																							<g>
																								<g>
																									<g>
																										<g>
																											<g>
																												<path style="fill:#263238;" d="M555.162,198.57c0.284,0.285,1.95-1.005,4.351-1.053
																													c2.4-0.083,4.191,1.113,4.446,0.813c0.124-0.133-0.166-0.652-0.95-1.194
																													c-0.768-0.54-2.07-1.052-3.567-1.012c-1.496,0.042-2.743,0.622-3.455,1.202
																													C555.264,197.91,555.023,198.443,555.162,198.57z"/>
																											</g>
																										</g>
																									</g>
																								</g>
																							</g>
																						</g>
																					</g>
																				</g>
																			</g>
																		</g>
																	</g>
																</g>
															</g>
														</g>
														<g>
															<g>
																<g>
																	<g>
																		<g>
																			<g>
																				<g>
																					<g>
																						<g>
																							<g>
																								<g>
																									<g>
																										<g>
																											<path style="fill:#263238;" d="M546.845,216.589c0.008-0.137-1.492-0.361-3.919-0.616
																												c-0.615-0.049-1.199-0.158-1.312-0.575c-0.155-0.44,0.087-1.107,0.368-1.828
																												c0.543-1.498,1.112-3.068,1.709-4.714c2.369-6.71,4.07-12.222,3.799-12.314
																												c-0.271-0.093-2.412,5.27-4.781,11.98c-0.569,1.654-1.114,3.231-1.632,4.74
																												c-0.217,0.702-0.598,1.503-0.264,2.416c0.176,0.455,0.634,0.777,1.029,0.874
																												c0.396,0.111,0.742,0.11,1.046,0.121C545.327,216.749,546.839,216.726,546.845,216.589z"/>
																										</g>
																									</g>
																								</g>
																							</g>
																						</g>
																					</g>
																				</g>
																			</g>
																		</g>
																	</g>
																</g>
															</g>
														</g>
														<g>
															<g>
																<g>
																	<g>
																		<g>
																			<g>
																				<g>
																					<g>
																						<g>
																							<g>
																								<g>
																									<g>
																										<path style="fill:#7C4B43;" d="M545.829,245.064c0,0,11.732,0.49,23.18-6.749
																											c0,0-5.387,12.09-22.852,10.855L545.829,245.064z"/>
																									</g>
																								</g>
																							</g>
																						</g>
																					</g>
																				</g>
																			</g>
																		</g>
																	</g>
																</g>
															</g>
														</g>
														<g>
															<g>
																<g>
																	<g>
																		<g>
																			<g>
																				<g>
																					<g>
																						<g>
																							<g>
																								<g>
																									<g>
																										<path style="fill:#7C4B43;" d="M547.33,222.295c1.126-1.67,3.002-2.721,4.81-2.693
																											c1.254,0.019,2.494,0.571,3.201,1.649c0.707,1.077,0.784,2.706,0.03,3.885
																											c-0.848,1.328-2.503,1.789-3.868,1.491c-1.365-0.298-2.506-1.202-3.588-2.108
																											c-0.299-0.251-0.605-0.513-0.781-0.882c-0.176-0.368-0.192-0.873,0.067-1.221"/>
																									</g>
																								</g>
																							</g>
																						</g>
																					</g>
																				</g>
																			</g>
																		</g>
																	</g>
																</g>
															</g>
														</g>
														<g>
															<g>
																<g>
																	<g>
																		<g>
																			<g>
																				<g>
																					<g>
																						<g>
																							<g>
																								<g>
																									<g>
																										<g>
																											<path style="fill:#263238;" d="M553.954,218.091c-0.391-0.014-0.337,2.595-2.528,4.497
																												c-2.186,1.908-4.974,1.678-4.985,2.043c-0.033,0.164,0.631,0.493,1.805,0.498
																												c1.152,0.013,2.825-0.395,4.165-1.558c1.336-1.166,1.888-2.694,1.952-3.767
																												C554.438,218.712,554.132,218.072,553.954,218.091z"/>
																										</g>
																									</g>
																								</g>
																							</g>
																						</g>
																					</g>
																				</g>
																			</g>
																		</g>
																	</g>
																</g>
															</g>
														</g>
													</g>
												</g>
											</g>
											<g>
												<g>
													<g>
														<g>
															<g>
																<g>
																	<g>
																		<g>
																			<g>
																				<g>
																					<g>
																						<g>
																							<path style="fill:#263238;" d="M554.049,192.075c0.252,0.648,2.644,0.284,5.471,0.56
																								c2.833,0.219,5.125,0.993,5.486,0.398c0.16-0.284-0.25-0.889-1.183-1.501
																								c-0.925-0.611-2.393-1.178-4.09-1.328c-1.697-0.147-3.24,0.157-4.258,0.598
																								C554.449,191.242,553.94,191.767,554.049,192.075z"/>
																						</g>
																					</g>
																				</g>
																			</g>
																		</g>
																	</g>
																</g>
															</g>
														</g>
													</g>
												</g>
											</g>
											<g>
												<g>
													<g>
														<g>
															<g>
																<g>
																	<g>
																		<g>
																			<g>
																				<g>
																					<g>
																						<g>
																							<path style="fill:#263238;" d="M532.257,191.682c0.435,0.536,2.078-0.068,4.068-0.14
																								c1.987-0.141,3.685,0.283,4.06-0.296c0.164-0.281-0.114-0.822-0.862-1.322
																								c-0.737-0.498-1.961-0.892-3.329-0.819c-1.366,0.074-2.54,0.596-3.22,1.171
																								C532.282,190.852,532.064,191.42,532.257,191.682z"/>
																						</g>
																					</g>
																				</g>
																			</g>
																		</g>
																	</g>
																</g>
															</g>
														</g>
													</g>
												</g>
											</g>
										</g>
									</g>
								</g>
							</g>
						</g>
					</g>
				</g>
			</g>
			<g>
				<g>
					<g>
						<path style="fill:#FF725E;" d="M543.55,173.796c0,0,16.332-0.724,29.242,17.357c8.508,11.916,10.678,27.127,10.678,27.127
							l5.45-29.229l-5.123-13.103l-11.477-6.054l-21.458-0.574l-7.965,4.242"/>
					</g>
				</g>
			</g>
			<g>
				<g>
					<g>
						<path style="fill:#FF725E;" d="M575.608,174.366c-26.206-5.499-46.754,3.731-49.971,24.249l-5.689-13.27l13.061-16.705
							l14.697-4.293l29.976,3.656L575.608,174.366z"/>
					</g>
				</g>
			</g>
			<g>
				<g>
					<g>
						<path style="fill:#455A64;" d="M587.39,216.271c-0.871-0.847-2.1-1.618-3.336-1.958l0.246-0.028
							c-0.231-0.051-0.464-0.066-0.697-0.082c-0.9-0.164-1.782-0.075-2.506,0.441l0.024-0.003c-1.355,0.579-2.521,1.653-3.12,3.008
							c-1.041,2.358-0.461,5.27,1.204,7.237c1.447,1.71,3.84,2.757,5.987,2.118c1.972-0.587,3.361-2.474,3.826-4.479
							C589.528,220.332,589.005,217.842,587.39,216.271z"/>
					</g>
				</g>
			</g>
		</g>
		<g>
			<g>
				<g>
					<path style="fill:#FFFFFF;" d="M580.96,207.159c0.011,0.033,0.451-0.055,1.146-0.46c0.682-0.408,1.612-1.181,2.319-2.456
						c0.703-1.247,1.145-3.08,0.619-4.97c-0.24-0.921-0.615-1.824-0.793-2.761c-0.198-0.93-0.052-1.902,0.616-2.607
						c0.654-0.716,1.607-1.153,2.487-1.659c0.902-0.483,1.732-1.156,2.323-1.914c1.205-1.527,1.679-3.272,1.741-4.704
						c0.075-1.448-0.279-2.596-0.602-3.318c-0.326-0.732-0.643-1.055-0.663-1.039c-0.156,0.046,0.991,1.565,0.763,4.323
						c-0.12,1.341-0.619,2.95-1.747,4.323c-0.567,0.69-1.28,1.258-2.156,1.721c-0.855,0.49-1.864,0.92-2.672,1.789
						c-0.844,0.866-1.02,2.199-0.774,3.214c0.212,1.042,0.606,1.939,0.846,2.804c0.51,1.703,0.167,3.366-0.433,4.565
						c-0.603,1.215-1.421,1.999-2.027,2.458C581.335,206.925,580.935,207.101,580.96,207.159z"/>
				</g>
			</g>
		</g>
		<g>
			<g>
				<g>
					<path style="fill:#FFFFFF;" d="M584.457,171.602c-0.146,0.053,0.909,1.455,0.897,4.046c0,1.269-0.328,2.808-1.2,4.23
						c-0.839,1.458-2.44,2.47-4.036,3.742c-0.785,0.648-1.538,1.389-1.993,2.309c-0.473,0.914-0.56,1.945-0.464,2.836
						c0.197,1.792,0.789,3.263,0.719,4.521c-0.024,1.268-0.47,2.246-0.962,2.732c-0.489,0.507-0.926,0.571-0.899,0.642
						c0.006,0.024,0.109,0.016,0.307-0.025c0.191-0.054,0.48-0.16,0.779-0.412c0.616-0.48,1.188-1.544,1.279-2.911
						c0.133-1.4-0.43-2.938-0.568-4.603c-0.069-0.831,0.023-1.691,0.433-2.466c0.394-0.782,1.068-1.452,1.823-2.075
						c1.514-1.213,3.245-2.324,4.144-3.952c0.918-1.569,1.208-3.23,1.142-4.576c-0.039-1.359-0.426-2.41-0.751-3.079
						C584.778,171.886,584.481,171.584,584.457,171.602z"/>
				</g>
			</g>
		</g>
		<g>
			<g>
				<g>
					<path style="fill:#FFFFFF;" d="M566.511,184.519c-0.031,0.021,0.207,0.264,0.713,0.144c0.24-0.064,0.515-0.22,0.739-0.499
						c0.234-0.278,0.36-0.702,0.358-1.131c0.024-0.883-0.495-1.784-0.561-2.697c-0.092-0.908,0.685-1.734,1.694-2.276
						c1.023-0.529,2.138-1.216,2.757-2.137c0.647-0.894,0.976-1.848,1.093-2.658c0.227-1.65-0.281-2.609-0.337-2.571
						c-0.125,0.023,0.177,0.991-0.157,2.477c-0.168,0.733-0.517,1.578-1.121,2.355c-0.6,0.808-1.493,1.34-2.59,1.917
						c-0.534,0.304-1.068,0.681-1.454,1.184c-0.397,0.488-0.611,1.166-0.539,1.755c0.153,1.165,0.692,1.943,0.712,2.665
						c0.081,0.719-0.334,1.188-0.687,1.353C566.776,184.571,566.53,184.462,566.511,184.519z"/>
				</g>
			</g>
		</g>
		<g>
			<g>
				<g>
					<path style="fill:#FFFFFF;" d="M561.132,170.503c-0.015-0.039-0.174-0.043-0.365,0.145c-0.185,0.185-0.341,0.56-0.284,1.021
						c0.055,0.46,0.315,0.905,0.463,1.339c0.146,0.429,0.167,0.943,0.055,1.473c-0.225,1.072-0.899,1.902-1.378,2.498
						c-0.492,0.595-0.801,0.985-0.73,1.058c0.065,0.067,0.487-0.183,1.093-0.71c0.581-0.521,1.429-1.395,1.712-2.701
						c0.137-0.64,0.091-1.309-0.138-1.851c-0.232-0.529-0.494-0.883-0.582-1.204C560.776,170.898,561.173,170.573,561.132,170.503z"
						/>
				</g>
			</g>
		</g>
		<g>
			<g>
				<g>
					<path style="fill:#FFFFFF;" d="M534.825,161.763c-0.041,0.024,0.054,0.28,0.303,0.695c0.241,0.417,0.671,0.974,1.059,1.693
						c0.407,0.718,0.56,1.642,0.292,2.703c-0.222,1.045-0.764,2.256-0.724,3.664c0.023,1.38,0.491,2.661,1.178,3.63
						c0.684,0.982,1.578,1.624,2.371,2.01c1.625,0.768,2.777,0.577,2.758,0.512c0.019-0.126-1.084-0.133-2.522-0.956
						c-0.705-0.412-1.482-1.037-2.065-1.935c-0.589-0.888-0.988-2.042-1.008-3.273c-0.044-1.227,0.437-2.363,0.654-3.52
						c0.271-1.149,0.016-2.355-0.498-3.084c-0.484-0.75-0.966-1.243-1.272-1.607C535.04,161.938,534.869,161.737,534.825,161.763z"
						/>
				</g>
			</g>
		</g>
		<g>
			<g>
				<g>
					<path style="fill:#FFFFFF;" d="M522.79,174.303c-0.102,0.118,0.789,0.497,1.148,1.772c0.174,0.658,0.525,1.447,0.786,2.276
						c0.274,0.851,0.507,1.85,1.039,2.835c1.116,2.033,3.266,2.804,4.667,2.831c1.461,0.042,2.255-0.479,2.214-0.534
						c-0.036-0.121-0.856,0.199-2.173,0.033c-1.277-0.149-3.13-0.92-4.084-2.672c-0.473-0.87-0.727-1.834-1.042-2.702
						c-0.325-0.896-0.695-1.587-0.937-2.244c-0.254-0.671-0.708-1.15-1.045-1.353C523.026,174.326,522.814,174.266,522.79,174.303z"
						/>
				</g>
			</g>
		</g>
		<g>
			<g>
				<g>
					<path style="fill:#FFFFFF;" d="M520.948,191.798c-0.081,0.037-0.011,0.447,0.376,0.979c0.377,0.526,1.121,1.147,2.127,1.382
						c1.006,0.234,1.949,0.006,2.519-0.3c0.583-0.306,0.827-0.643,0.77-0.712c-0.096-0.173-1.425,0.717-3.128,0.319
						C521.909,193.071,521.11,191.686,520.948,191.798z"/>
				</g>
			</g>
		</g>
		<g>
			<g>
				<g>
					<path style="fill:#FFFFFF;" d="M550.221,158.714c-0.067,0.109,0.743,0.504,1.5,1.626c0.741,1.077,1.376,3.036,0.592,4.916
						c-0.386,0.919-0.995,1.925-0.899,2.997c0.065,1.042,0.577,1.835,1.032,2.39c0.959,1.108,1.779,1.492,1.82,1.432
						c0.079-0.092-0.631-0.632-1.419-1.737c-0.375-0.551-0.763-1.277-0.778-2.112c-0.053-0.838,0.46-1.673,0.903-2.701
						c0.449-1.061,0.47-2.209,0.262-3.162c-0.219-0.959-0.641-1.756-1.108-2.322C551.177,158.888,550.233,158.647,550.221,158.714z"
						/>
				</g>
			</g>
		</g>
		<g>
			<g>
				<g>
					<path style="fill:#FFFFFF;" d="M566.98,170.78c0.192-0.085-0.388-1.619-0.454-3.59c-0.093-1.97,0.362-3.546,0.164-3.615
						c-0.164-0.084-0.97,1.506-0.875,3.643C565.893,169.357,566.824,170.877,566.98,170.78z"/>
				</g>
			</g>
		</g>
		<g>
			<g>
				<g>
					<path style="fill:#FFFFFF;" d="M579.025,168.757c0.031-0.049-0.156-0.179-0.318-0.522c-0.161-0.336-0.297-0.893-0.178-1.555
						c0.208-1.361,1.523-2.917,2.613-4.897c0.538-1.005,0.897-2.07,0.983-3.083c0.096-1.009-0.113-1.956-0.487-2.632
						c-0.361-0.687-0.875-1.114-1.276-1.285c-0.411-0.167-0.661-0.117-0.662-0.078c-0.008,0.057,0.215,0.108,0.528,0.321
						c0.307,0.218,0.692,0.63,0.957,1.262c0.601,1.248,0.378,3.281-0.672,5.162c-1.021,1.883-2.355,3.551-2.483,5.167
						c-0.07,0.789,0.174,1.419,0.441,1.764C578.745,168.737,579.012,168.794,579.025,168.757z"/>
				</g>
			</g>
		</g>
		<g>
			<g>
				<g>
					<path style="fill:#FFFFFF;" d="M562.226,161.4c0.034-0.037-0.109-0.222-0.387-0.524c-0.247-0.299-0.751-0.734-0.8-1.327
						c-0.022-0.567,0.503-1.35,1.101-2.022c0.622-0.698,1.454-1.346,2.287-2.133c0.797-0.796,1.63-1.658,1.768-2.817
						c0.088-1.111-0.367-1.969-0.722-2.619c-0.782-1.289-1.434-1.93-1.5-1.886c-0.097,0.063,0.421,0.832,1.054,2.119
						c0.288,0.64,0.626,1.46,0.517,2.31c-0.103,0.814-0.839,1.631-1.608,2.379c-1.577,1.459-3.406,2.887-3.396,4.725
						c0.195,0.9,0.82,1.218,1.116,1.479C561.992,161.324,562.193,161.436,562.226,161.4z"/>
				</g>
			</g>
		</g>
		<g>
			<g>
				<g>
					<path style="fill:#FFFFFF;" d="M546.016,159.01c0.061-0.092-0.726-0.406-0.986-1.54c-0.134-0.551-0.096-1.221,0.179-1.933
						c0.262-0.715,0.729-1.445,1.214-2.255c0.482-0.809,0.904-1.674,1.009-2.555c0.122-0.928-0.237-1.687-0.557-2.229
						c-0.669-1.154-1.626-1.342-1.617-1.217c-0.026,0.084,0.683,0.372,1.175,1.458c0.239,0.519,0.484,1.199,0.349,1.894
						c-0.12,0.733-0.502,1.498-0.973,2.287c-0.471,0.79-0.959,1.579-1.221,2.402c-0.279,0.813-0.273,1.667-0.042,2.289
						c0.218,0.632,0.609,1.051,0.925,1.239C545.792,159.042,546.003,159.049,546.016,159.01z"/>
				</g>
			</g>
		</g>
		<g>
			<g>
				<g>
					<path style="fill:#263238;" d="M540.412,158.642c0.004,0.049,0.714,0.056,1.991,0.028c1.276-0.056,3.124-0.032,5.4,0.045
						c4.542,0.208,10.837,1.053,17.367,3.449c6.531,2.386,12.006,5.582,15.897,7.958c1.848,1.161,3.388,2.128,4.583,2.879
						c1.08,0.686,1.691,1.046,1.719,1.005c0.028-0.04-0.53-0.477-1.563-1.234c-1.03-0.761-2.553-1.819-4.47-3.075
						c-3.834-2.493-9.312-5.786-15.923-8.202c-6.61-2.426-13.012-3.204-17.593-3.283c-2.297-0.013-4.155,0.04-5.431,0.181
						C541.111,158.507,540.408,158.593,540.412,158.642z"/>
				</g>
			</g>
		</g>
		<g>
			<g>
				<g>
					<g>
						<path style="fill:#263238;" d="M581.957,173.497c-0.003,0.006-0.062-0.012-0.174-0.053c-0.134-0.052-0.295-0.115-0.492-0.191
							c-0.225-0.091-0.489-0.198-0.794-0.322c-0.325-0.114-0.693-0.243-1.104-0.386c-1.664-0.557-4.135-1.234-7.266-1.523
							c-3.124-0.318-6.89-0.243-10.999,0.375c-2.055,0.303-4.191,0.756-6.395,1.277c-2.2,0.529-4.464,1.138-6.732,1.914
							c-9.16,2.947-16.107,8.974-19.16,14.436c-1.566,2.724-2.256,5.207-2.661,6.909c-0.205,0.855-0.321,1.529-0.397,1.986
							c-0.039,0.208-0.072,0.378-0.098,0.519c-0.025,0.117-0.041,0.176-0.048,0.175c-0.007-0.001-0.005-0.062,0.006-0.18
							c0.016-0.143,0.035-0.315,0.059-0.525c0.05-0.462,0.141-1.142,0.324-2.008c0.36-1.722,1.012-4.24,2.565-7.017
							c3.024-5.571,10.04-11.708,19.279-14.68c2.284-0.781,4.562-1.391,6.772-1.917c2.211-0.517,4.361-0.965,6.432-1.26
							c4.139-0.602,7.938-0.648,11.083-0.29c3.152,0.328,5.632,1.054,7.289,1.66c0.407,0.157,0.773,0.298,1.096,0.423
							c0.301,0.138,0.56,0.257,0.782,0.359c0.191,0.091,0.347,0.166,0.477,0.228C581.907,173.46,581.96,173.491,581.957,173.497z"/>
					</g>
				</g>
			</g>
		</g>
		<g>
			<g>
				<g>
					<g>
						<path style="fill:#263238;" d="M547.908,174.538c0.001-0.014,0.195-0.012,0.567,0.005c0.372,0.008,0.918,0.066,1.618,0.164
							c1.395,0.214,3.403,0.701,5.719,1.726c4.623,2.03,10.453,6.227,15.176,12.352c2.388,3.039,4.197,6.253,5.781,9.18
							c1.573,2.94,2.844,5.667,3.765,8.016c0.935,2.344,1.511,4.31,1.832,5.684c0.156,0.688,0.265,1.225,0.315,1.593
							c0.058,0.367,0.081,0.56,0.067,0.563c-0.014,0.002-0.064-0.186-0.148-0.547c-0.076-0.362-0.209-0.891-0.388-1.57
							c-0.367-1.355-0.982-3.295-1.946-5.615c-0.951-2.324-2.243-5.027-3.829-7.946c-1.599-2.911-3.406-6.098-5.773-9.109
							c-4.681-6.071-10.427-10.262-14.973-12.339c-2.278-1.048-4.252-1.571-5.628-1.831c-0.69-0.12-1.23-0.204-1.598-0.238
							C548.1,174.582,547.907,174.553,547.908,174.538z"/>
					</g>
				</g>
			</g>
		</g>
	</g>
	<g>
		<g>
			<g>
				<path style="fill:#AB6E65;" d="M405.02,308.761l12.571-7.893l21.049,3.947l15.787,13.887l26.019,9.573l-1.205,22.367
					c0,0-40.894-22.803-44.11-24.887c-3.216-2.083-9.355-8.515-9.355-8.515l-8.186-2.121h-9.647c0,0-1.754-2.586-2.924-3.449
					S405.02,308.761,405.02,308.761z"/>
			</g>
			<g>
				<g>
					<path style="fill:#7C4B43;" d="M432.418,313.808c-0.023,0.037-0.548-0.238-1.459-0.758c-0.911-0.52-2.206-1.283-3.771-2.221
						l0.087,0.03c-2.353-0.257-5.16-0.563-8.191-0.893c-0.238-0.027-0.475-0.055-0.695-0.08l0.069-0.001
						c-3.736,0.566-7.09,1.046-9.514,1.368c-1.126,0.139-2.082,0.258-2.868,0.355c-0.677,0.072-1.053,0.096-1.058,0.061
						c-0.005-0.034,0.36-0.124,1.029-0.256c0.779-0.141,1.727-0.313,2.843-0.515c2.409-0.414,5.755-0.954,9.489-1.527l0.034-0.005
						l0.035,0.004c0.22,0.025,0.457,0.052,0.695,0.08c3.027,0.366,5.83,0.704,8.18,0.989l0.049,0.006l0.038,0.024
						c1.539,0.978,2.802,1.794,3.675,2.375C431.96,313.425,432.441,313.771,432.418,313.808z"/>
				</g>
			</g>
			<g>
				<g>
					<path style="fill:#7C4B43;" d="M433.322,308.761c-0.022,0.04-0.64-0.243-1.709-0.774c-1.069-0.531-2.59-1.311-4.415-2.264
						l0.078,0.024c-2.364-0.266-5.131-0.576-8.103-0.91c-0.735-0.087-1.457-0.173-2.146-0.255l0.119-0.014
						c-3.411,1.247-6.431,2.326-8.604,3.078c-1.011,0.34-1.866,0.627-2.567,0.863c-0.606,0.193-0.943,0.283-0.954,0.253
						c-0.011-0.031,0.304-0.18,0.89-0.427c0.686-0.276,1.523-0.612,2.513-1.009c2.141-0.838,5.139-1.976,8.544-3.241l0.057-0.021
						l0.062,0.007c0.689,0.08,1.411,0.164,2.147,0.25c2.968,0.364,5.732,0.704,8.093,0.994l0.043,0.005l0.035,0.019
						c1.803,0.994,3.293,1.83,4.327,2.427C432.766,308.362,433.343,308.721,433.322,308.761z"/>
				</g>
			</g>
		</g>
		<g>
			<path style="fill:#E0E0E0;" d="M355.878,238.928l27.32,71.311c0.21,0.548,0.64,0.984,1.185,1.202l71.094,28.438
				c1.391,0.556,2.901-0.475,2.889-1.973l0,0c-0.007-0.839-0.511-1.594-1.283-1.922L387.914,306.9l-27.272-69.887
				c-0.446-1.109-1.724-1.626-2.815-1.138l-0.842,0.376C355.965,236.708,355.478,237.883,355.878,238.928z"/>
		</g>
	</g>
	<g>
		<g>
			<path style="fill:#263238;" d="M283.845,395.982c0,0,83.435-68.178,87.66-71.933c4.225-3.755,11.266-7.98,22.063-8.919
				c10.797-0.939,128.156,57.271,128.156,57.271l23.941,51.638c0,0-15.429,20.017-43.657,13.614
				c-27.578-6.255-44.923-19.017-58.21-30.983c-12.089-10.887-49.181-39.956-49.181-39.956l-84.135,59.587L283.845,395.982z"/>
		</g>
		<g>
			<g>
				<path style="fill:#455A64;" d="M394.609,350.641c0.144,0,0.262,3.598,0.264,8.035c0.002,4.439-0.113,8.036-0.257,8.036
					s-0.262-3.597-0.264-8.036C394.351,354.239,394.465,350.641,394.609,350.641z"/>
			</g>
		</g>
	</g>
	<g>
		<g>
			<path style="fill:#FF725E;" d="M511.025,337.35c0,0,0.17-12.524,4.555-25.68c4.385-13.156,27.713-43.299,27.713-43.299
				l1.094-5.522c0,0,25.756-17.594,31.603-20.517c5.847-2.924,9.939-2.863,9.939-2.863l0.767,5.711c0,0,14.013,13.925,14.896,28.638
				c0.705,11.749-0.074,46.929-0.074,46.929l-3.519,123.745c0,0-80.833,0.212-88.357-0.373c-7.524-0.585-6.939-3.216-6.939-3.216
				l9.336-76.104L511.025,337.35z"/>
		</g>
		<g>
			<path style="fill:#FF725E;" d="M578.187,254.268c0,0-7.881,5.372-17.63,15.607c-9.748,10.236-36.549,54.309-36.549,54.309
				l-45.184-2.538c-1.61-0.206-3.102,0.867-3.42,2.46c-1.378,6.891-4.329,24.531-0.059,31.519
				c5.361,8.773,11.698,7.311,11.698,7.311s45.329,4.569,51.665,0.091c6.336-4.478,43.141-49.885,49.477-65.482
				C594.521,281.949,602.07,253.804,578.187,254.268z"/>
		</g>
		<g>
			<g>
				<path style="fill:#263238;" d="M588.185,297.546c0,0-0.082,0.215-0.266,0.626c-0.193,0.425-0.469,1.031-0.829,1.822
					c-0.338,0.816-0.898,1.753-1.513,2.887c-0.312,0.565-0.648,1.173-1.007,1.823c-0.389,0.634-0.802,1.309-1.24,2.023
					c-3.5,5.726-9.019,13.754-16.322,23.384c-3.651,4.816-7.749,10.032-12.268,15.559c-2.264,2.76-4.636,5.595-7.141,8.471
					c-1.259,1.432-2.529,2.893-3.877,4.325c-0.663,0.725-1.334,1.452-2.05,2.15c-0.701,0.711-1.402,1.43-2.208,2.074l-0.586,0.499
					c-0.219,0.144-0.462,0.266-0.693,0.398c-0.483,0.201-0.972,0.404-1.476,0.52c-1,0.288-2.027,0.441-3.057,0.586
					c-2.063,0.27-4.161,0.392-6.28,0.47c-4.241,0.142-8.576,0.066-12.99-0.088c-8.829-0.33-17.977-0.984-27.364-1.881l0.084-0.005
					c-2.147,0.335-4.332-0.281-6.212-1.402c-1.896-1.117-3.489-2.735-4.78-4.542c-0.972-1.358-1.798-2.882-2.251-4.5
					c-0.426-1.617-0.714-3.258-0.83-4.901c-0.27-3.284-0.154-6.546,0.1-9.75c0.263-3.205,0.676-6.36,1.192-9.457
					c0.258-1.549,0.537-3.082,0.842-4.606c0.306-1.679,2.037-2.887,3.694-2.635l-0.018-0.002
					c16.419,0.936,31.648,1.804,45.182,2.575l-0.196,0.104c9.89-16.481,18.42-29.89,24.701-39.023
					c3.15-4.558,5.693-8.08,7.574-10.362c0.901-1.173,1.678-1.998,2.186-2.566c0.51-0.566,0.785-0.845,0.785-0.845
					s-0.243,0.31-0.736,0.889c-0.491,0.582-1.25,1.418-2.134,2.602c-1.845,2.304-4.354,5.845-7.472,10.421
					c-6.215,9.167-14.69,22.606-24.535,39.103l-0.067,0.112l-0.13-0.007c-13.535-0.749-28.766-1.592-45.186-2.501l-0.011-0.001
					l-0.007-0.001c-1.408-0.213-2.876,0.814-3.134,2.239c-0.301,1.511-0.579,3.044-0.835,4.586
					c-0.512,3.086-0.921,6.228-1.181,9.416c-0.251,3.185-0.364,6.425-0.096,9.664c0.114,1.621,0.399,3.229,0.812,4.801
					c0.444,1.573,1.212,2.99,2.174,4.34c1.261,1.765,2.806,3.329,4.621,4.398c1.78,1.078,3.919,1.643,5.832,1.344l0.053-0.008
					l0.031,0.003c9.372,0.898,18.517,1.559,27.33,1.896c4.406,0.159,8.733,0.239,12.955,0.104c2.11-0.074,4.196-0.193,6.234-0.457
					c1.015-0.141,2.03-0.292,2.993-0.568c0.974-0.276,1.888-0.583,2.592-1.328c0.774-0.615,1.474-1.329,2.171-2.034
					c0.711-0.689,1.381-1.413,2.043-2.135c1.345-1.424,2.617-2.879,3.876-4.307c2.507-2.866,4.883-5.693,7.153-8.444
					c4.529-5.51,8.641-10.71,12.308-15.508c7.335-9.596,12.893-17.585,16.439-23.272c0.444-0.71,0.864-1.38,1.258-2.009
					c0.366-0.645,0.708-1.248,1.026-1.808c0.628-1.124,1.201-2.052,1.552-2.859c0.379-0.781,0.669-1.379,0.872-1.798
					C588.071,297.748,588.185,297.546,588.185,297.546z"/>
			</g>
		</g>
		<g>
			<g>
				<path style="fill:#263238;" d="M533.038,343.199c-0.079,0.018-0.387-1.127-0.975-2.944c-0.586-1.817-1.49-4.296-2.726-6.931
					c-1.241-2.633-2.573-4.911-3.598-6.522c-1.024-1.612-1.709-2.58-1.644-2.629c0.049-0.038,0.84,0.852,1.951,2.424
					c1.111,1.57,2.509,3.844,3.763,6.505c1.249,2.662,2.107,5.19,2.607,7.047C532.917,342.008,533.099,343.185,533.038,343.199z"/>
			</g>
		</g>
		<g>
			<g>
				<path style="fill:#263238;" d="M525.696,343.366c-0.076-0.002-0.101-1.092-0.155-2.849c-0.054-1.757-0.156-4.182-0.375-6.853
					c-0.222-2.671-0.52-5.08-0.756-6.822c-0.235-1.742-0.39-2.821-0.315-2.836c0.066-0.013,0.349,1.043,0.679,2.777
					c0.33,1.734,0.688,4.151,0.911,6.838c0.221,2.686,0.265,5.129,0.225,6.894C525.87,342.28,525.764,343.368,525.696,343.366z"/>
			</g>
		</g>
		<g>
			<g>
				<path style="fill:#263238;" d="M489.309,363.555c-0.035,0.008-0.187-0.549-0.433-1.565c-0.252-1.014-0.562-2.494-0.898-4.332
					c-0.675-3.674-1.358-8.804-1.604-14.505c-0.238-5.704,0.007-10.874,0.367-14.592c0.178-1.859,0.362-3.36,0.527-4.392
					c0.158-1.032,0.263-1.6,0.299-1.595c0.036,0.005-0.001,0.582-0.097,1.62c-0.103,1.037-0.23,2.54-0.361,4.398
					c-0.266,3.715-0.451,8.862-0.214,14.54c0.245,5.675,0.867,10.788,1.447,14.466c0.288,1.84,0.543,3.327,0.733,4.352
					C489.259,362.976,489.344,363.548,489.309,363.555z"/>
			</g>
		</g>
		<g>
			<g>
				<path style="fill:#263238;" d="M586.696,245.181c0.007,0.017-0.161,0.106-0.485,0.259c-0.38,0.172-0.852,0.387-1.428,0.648
					c-1.239,0.561-3.018,1.407-5.16,2.555c-4.301,2.271-9.959,5.914-15.966,10.283c-5.962,4.331-11.299,8.363-15.313,11.101
					l-0.162,0.111l-0.098-0.159c-1.316-2.139-2.063-3.998-2.708-5.222c-0.309-0.618-0.558-1.093-0.735-1.411
					c-0.176-0.318-0.269-0.486-0.253-0.497c0.013-0.009,0.137,0.139,0.343,0.442c0.207,0.302,0.487,0.764,0.825,1.37
					c0.7,1.195,1.513,3.053,2.835,5.111l-0.26-0.048c3.953-2.809,9.247-6.881,15.22-11.22c6.017-4.376,11.736-7.989,16.1-10.187
					c2.174-1.111,3.984-1.91,5.251-2.416c0.593-0.226,1.078-0.411,1.469-0.559C586.509,245.22,586.69,245.164,586.696,245.181z"/>
			</g>
		</g>
		<g style="opacity:0.3;">
			<g>
				<path d="M544.962,356.893c-0.027,0.032-0.053,0.064-0.08,0.096c-3.94,4.71-9.725,7.481-15.865,7.569L512.04,364.8
					c5.03,2.222,10.318,4.983,15.734,5.937c5.416,0.954,11.275,0.506,15.962-2.37c4.122-2.53,6.958-6.654,9.67-10.658
					c9.151-13.509,18.349-27.101,25.058-41.975C567.056,329.35,556.37,343.278,544.962,356.893z"/>
			</g>
		</g>
		<g style="opacity:0.3;">
			<polygon points="544.742,263.413 547.979,273.758 576.373,250.217 548.237,269.875 			"/>
		</g>
		<g>
			<g>
				<path style="fill:#263238;" d="M591.78,289.831c-0.044-0.015,0.164-0.649,0.451-1.814c0.287-1.164,0.635-2.871,0.779-5.006
					c0.125-2.13,0.027-4.702-0.684-7.432c-0.69-2.726-2.078-5.574-4.192-8.039c-2.123-2.451-4.768-4.234-7.431-5.116
					c-2.664-0.9-5.263-0.979-7.363-0.685c-2.109,0.314-3.735,0.965-4.79,1.52c-1.061,0.554-1.589,0.966-1.622,0.92
					c-0.011-0.014,0.116-0.123,0.368-0.318c0.246-0.205,0.637-0.465,1.157-0.779c1.041-0.618,2.679-1.338,4.832-1.706
					c2.143-0.349,4.815-0.309,7.571,0.593c2.757,0.884,5.492,2.712,7.673,5.231c2.171,2.531,3.582,5.464,4.262,8.26
					c0.702,2.798,0.761,5.421,0.586,7.578c-0.194,2.162-0.601,3.876-0.951,5.032c-0.178,0.578-0.327,1.023-0.447,1.318
					C591.865,289.684,591.797,289.837,591.78,289.831z"/>
			</g>
		</g>
		<g>
			<g>
				<path style="fill:#263238;" d="M517.732,364.833c0.018,0.002,0.009,0.28-0.023,0.81c-0.042,0.577-0.098,1.348-0.168,2.314
					c-0.154,2.009-0.411,4.913-0.753,8.5c-0.68,7.173-1.749,17.068-2.995,27.988c-1.226,10.902-2.336,20.768-3.147,27.972
					c-0.383,3.541-0.695,6.425-0.917,8.481c-0.111,0.963-0.199,1.73-0.265,2.305c-0.066,0.526-0.11,0.802-0.128,0.8
					c-0.018-0.002-0.009-0.28,0.023-0.81c0.042-0.577,0.098-1.347,0.168-2.314c0.154-2.009,0.412-4.913,0.753-8.499
					c0.68-7.173,1.749-17.069,2.996-27.993c1.226-10.898,2.336-20.763,3.146-27.967c0.383-3.541,0.695-6.425,0.917-8.481
					c0.111-0.963,0.199-1.73,0.265-2.305C517.671,365.108,517.714,364.832,517.732,364.833z"/>
			</g>
		</g>
		<g>
			<g>
				<path style="fill:#263238;" d="M548.025,269.328c0.013,0.012-0.12,0.185-0.385,0.503c-0.303,0.357-0.69,0.814-1.169,1.379
					c-1.013,1.199-2.444,2.962-4.134,5.2c-3.381,4.475-7.74,10.9-12.001,18.325c-4.26,7.426-7.65,14.421-9.599,19.675
					c-0.989,2.621-1.602,4.809-1.858,6.35c-0.276,1.541-0.164,2.411-0.218,2.415c-0.018,0.002-0.045-0.213-0.081-0.629
					c-0.021-0.414-0.013-1.034,0.098-1.816c0.198-1.57,0.763-3.793,1.713-6.445c1.871-5.317,5.222-12.362,9.493-19.809
					c4.273-7.446,8.694-13.859,12.161-18.29c1.733-2.216,3.212-3.949,4.274-5.11c0.523-0.587,0.958-1.018,1.244-1.316
					C547.853,269.464,548.012,269.315,548.025,269.328z"/>
			</g>
		</g>
		<g style="opacity:0.3;">
			<g>
				<path d="M601.54,321.583c0.055-2.071-0.316-5.849-2.326-6.304c-3.091-0.7-10.573,9.731-12.127,12.493
					c-8.821,15.69-11.252,27.826-12.156,43.417c-0.904,15.592-3.259,30.825-8.746,45.448c-5.488,14.622-18.417,26.308-33.905,27.674
					l65.719,0.182C599.041,405.552,600.498,360.524,601.54,321.583z"/>
			</g>
		</g>
	</g>
</g>
<g id="Floor">
	<g>
		<g>
			<path style="fill:#263238;" d="M54.372,444.57c0-0.144,143.514-0.26,320.507-0.26c177.054,0,320.538,0.117,320.538,0.26
				c0,0.144-143.484,0.26-320.538,0.26C197.886,444.831,54.372,444.714,54.372,444.57z"/>
		</g>
	</g>
</g>
<g id="Backpack">
	<g>
		<g>
			<path style="fill:#455A64;" d="M667.815,311.101c0,0-42.803-0.836-54.22,0c-11.984,0.878-18.79,7.105-19.116,16.966
				c-0.148,4.467-5.339,103.113-3.713,108.496c2.924,9.68,13.93,8.007,21.064,8.007c7.134,0,69.042,0,69.042,0
				c5.453-3.678,6.919-11.368,6.562-24.566c-0.357-13.198,1.863-81.003,2.14-90.604
				C690.161,309.047,667.815,311.101,667.815,311.101z"/>
		</g>
		<g>
			<g>
				<path style="fill:#263238;" d="M607.716,439.699c0,0,0.25-0.018,0.729-0.027c0.498-0.007,1.211-0.017,2.141-0.029
					c1.899-0.016,4.669-0.038,8.233-0.068c7.167-0.055,17.51-0.134,30.294-0.231c6.396-0.067,13.406-0.131,20.927-0.304
					c1.875-0.07,3.802-0.066,5.706-0.29c0.951-0.112,1.893-0.344,2.771-0.723c0.879-0.373,1.687-0.945,2.237-1.73
					c0.556-0.78,0.849-1.733,0.953-2.714c0.093-0.979,0.026-2.016,0.079-3.053c0.068-2.061,0.137-4.151,0.207-6.266
					c0.279-8.461,0.566-17.345,0.731-26.559c0.067-4.604,0.161-9.301-0.008-14.044c-0.028-0.591-0.036-1.189-0.11-1.769
					l-0.088-0.877l-0.202-0.844c-0.327-1.11-0.926-2.136-1.716-3c-1.593-1.722-3.82-2.876-6.11-3.494l0.059,0.006
					c-0.35,0-0.73,0-1.111,0c-9.848-0.002-19.462-0.004-28.747-0.005c-4.643-0.002-9.203-0.004-13.669-0.007
					c-2.233-0.001-4.443-0.003-6.627-0.004c-2.182,0.004-4.346,0.013-6.481-0.1c-4.249-0.155-8.444-0.513-12.371,0.289
					c-1.938,0.409-3.812,1.21-5.1,2.626c-1.294,1.406-1.919,3.285-2.102,5.133c-0.584,7.543-0.894,14.617-1.146,21.056
					c-0.231,6.445-0.359,12.279-0.275,17.4c0.072,2.557,0.12,4.945,0.391,7.115c0.038,0.548,0.144,1.069,0.245,1.58
					c0.051,0.255,0.091,0.51,0.15,0.756c0.08,0.241,0.159,0.479,0.238,0.714c0.305,0.944,0.75,1.786,1.218,2.546
					c0.953,1.518,2.088,2.667,3.138,3.562c1.055,0.894,2.037,1.542,2.848,2.031c0.814,0.486,1.465,0.802,1.902,1.014
					C607.489,439.598,607.716,439.699,607.716,439.699s-0.242-0.069-0.689-0.262c-0.446-0.197-1.107-0.499-1.933-0.972
					c-0.823-0.477-1.82-1.114-2.895-2.003c-1.068-0.89-2.227-2.039-3.209-3.572c-0.483-0.768-0.942-1.621-1.26-2.58
					c-0.082-0.239-0.164-0.482-0.247-0.727c-0.062-0.251-0.105-0.509-0.159-0.768c-0.107-0.519-0.217-1.05-0.259-1.599
					c-0.288-2.187-0.349-4.577-0.436-7.14c-0.112-5.129-0.009-10.968,0.199-17.418c0.228-6.453,0.516-13.505,1.084-21.091
					c0.184-1.901,0.828-3.885,2.203-5.387c1.371-1.513,3.344-2.35,5.332-2.773c4.031-0.829,8.241-0.467,12.488-0.321
					c2.127,0.11,4.283,0.098,6.469,0.091c2.184-0.001,4.393-0.003,6.626-0.004c4.465-0.002,9.025-0.004,13.667-0.006
					c9.284-0.002,18.896-0.003,28.741-0.005c0.38,0,0.76,0,1.111,0h0.035l0.024,0.007c2.409,0.653,4.678,1.826,6.378,3.652
					c0.838,0.915,1.481,2.015,1.831,3.206l0.216,0.904l0.092,0.908c0.076,0.607,0.084,1.203,0.112,1.8
					c0.168,4.775,0.071,9.465,0,14.076c-0.172,9.219-0.469,18.104-0.762,26.566c-0.073,2.115-0.146,4.203-0.217,6.264
					c-0.056,1.023,0.012,2.039-0.087,3.087c-0.111,1.035-0.428,2.075-1.042,2.932c-0.608,0.864-1.494,1.483-2.426,1.876
					c-0.934,0.401-1.917,0.638-2.895,0.751c-1.96,0.225-3.871,0.214-5.754,0.28c-7.528,0.155-14.536,0.197-20.934,0.241
					c-12.785,0.028-23.129,0.051-30.296,0.066c-3.564-0.013-6.335-0.023-8.233-0.03c-0.93-0.01-1.642-0.017-2.141-0.022
					C607.96,439.717,607.716,439.699,607.716,439.699z"/>
			</g>
		</g>
		<g>
			<g>
				<path style="fill:#263238;" d="M682.466,441.387c0,0,0.08-0.275,0.258-0.8c0.213-0.513,0.377-1.324,0.612-2.379
					c0.401-2.126,0.778-5.3,1.024-9.406c0.249-4.105,0.396-9.138,0.403-14.981c-0.006-1.461-0.013-2.972-0.02-4.533
					c-0.015-1.558-0.066-3.172-0.02-4.829c0.048-3.315,0.1-6.818,0.154-10.496c0.225-14.719,0.493-32.238,0.791-51.69
					c0.037-2.432,0.074-4.893,0.112-7.384c0.004-2.474-0.192-4.992-0.961-7.387c-0.737-2.396-2.128-4.61-4.022-6.326
					c-0.931-0.869-1.997-1.629-3.116-2.243c-1.118-0.59-2.407-0.9-3.685-1.167c-2.575-0.515-5.232-0.774-7.91-0.939
					c-2.683-0.168-5.382-0.227-8.123-0.228c-5.466-0.103-11.011-0.207-16.623-0.312c-5.614-0.081-11.161-0.14-16.628-0.139
					c-2.733,0-5.446,0.023-8.135,0.075c-1.342,0.046-2.683,0.067-4.007,0.163c-0.67,0.022-1.313,0.112-1.956,0.194
					c-0.636,0.135-1.283,0.272-1.899,0.482c-2.497,0.754-4.788,2.113-6.542,3.967c-1.752,1.852-2.931,4.214-3.309,6.682
					c-0.521,5.024-0.695,10.036-0.965,14.884c-0.444,9.719-0.867,18.954-1.262,27.599c-0.426,8.641-0.823,16.691-1.185,24.041
					c-0.367,7.347-0.698,13.995-0.99,19.835c-0.148,2.918-0.285,5.635-0.412,8.136c-0.105,2.5-0.316,4.787-0.217,6.834
					c0.186,4.105,1.062,7.214,1.724,9.264c0.338,1.027,0.642,1.795,0.855,2.307c0.213,0.512,0.325,0.774,0.325,0.774
					s-0.145-0.246-0.374-0.753c-0.23-0.506-0.55-1.27-0.906-2.295c-0.696-2.045-1.608-5.157-1.827-9.288
					c-0.115-2.067,0.082-4.35,0.172-6.851c0.113-2.502,0.237-5.219,0.369-8.138c0.269-5.841,0.575-12.49,0.913-19.839
					c0.665-14.706,1.457-32.211,2.335-51.649c0.265-4.865,0.427-9.829,0.953-14.938c0.391-2.569,1.615-5.024,3.432-6.948
					c1.819-1.926,4.192-3.332,6.758-4.109c0.636-0.216,1.293-0.358,1.953-0.497c0.675-0.089,1.352-0.182,2.019-0.204
					c1.34-0.098,2.682-0.119,4.03-0.166c2.695-0.054,5.411-0.078,8.146-0.079c5.471-0.003,11.02,0.055,16.636,0.136
					c5.613,0.106,11.159,0.211,16.625,0.315c2.725,0.001,5.454,0.062,8.145,0.232c2.692,0.168,5.364,0.428,7.981,0.953
					c1.303,0.275,2.611,0.583,3.821,1.219c1.174,0.647,2.251,1.418,3.219,2.32c1.955,1.773,3.398,4.076,4.154,6.546
					c0.789,2.468,0.983,5.042,0.977,7.537c-0.041,2.491-0.081,4.953-0.121,7.385c-0.34,19.451-0.646,36.97-0.902,51.688
					c-0.067,3.678-0.13,7.181-0.19,10.496c-0.053,1.657-0.009,3.263,0,4.827c0,1.562,0,3.074-0.001,4.537
					c-0.035,5.848-0.211,10.884-0.492,14.993c-0.277,4.109-0.687,7.287-1.123,9.413c-0.253,1.056-0.434,1.864-0.665,2.376
					C682.578,441.126,682.466,441.387,682.466,441.387z"/>
			</g>
		</g>
		<g>
			<g>
				<path style="fill:#263238;" d="M604.927,382.807c-0.005-0.005,0.105-0.01,0.326-0.016c0.242-0.004,0.568-0.009,0.989-0.016
					c0.901-0.007,2.196-0.018,3.867-0.032c3.413-0.016,8.355-0.039,14.564-0.069c12.514-0.029,30.132-0.069,50.642-0.116
					l0.216-0.001l0.029,0.215c1.197,8.95,2.499,18.675,3.849,28.771l0.039,0.295h-0.297c-0.889,0-1.849,0-2.813,0
					c-28.849-0.031-54.902-0.059-73.398-0.079l-0.195,0l0.014-0.193c0.657-8.932,1.188-16.135,1.555-21.128
					c0.189-2.454,0.336-4.364,0.438-5.683c0.052-0.628,0.092-1.114,0.121-1.464C604.903,382.965,604.927,382.807,604.927,382.807
					s0,0.183-0.017,0.523c-0.02,0.358-0.048,0.856-0.083,1.498c-0.081,1.33-0.199,3.255-0.35,5.728
					c-0.32,4.972-0.782,12.144-1.355,21.037l-0.18-0.193c18.495-0.02,44.548-0.048,73.398-0.079c0.964,0,1.924,0,2.813,0
					l-0.258,0.295c-1.342-10.097-2.634-19.823-3.823-28.774l0.245,0.215c-20.445-0.047-38.007-0.087-50.482-0.116
					c-6.232-0.029-11.192-0.052-14.618-0.068c-1.692-0.014-3.004-0.024-3.916-0.032c-0.433-0.007-0.768-0.012-1.017-0.016
					C605.051,382.818,604.932,382.813,604.927,382.807z"/>
			</g>
		</g>
		<g>
			<rect x="617.092" y="390.48" style="fill:#263238;" width="9.686" height="44.432"/>
		</g>
		<g>
			<rect x="658.055" y="390.48" style="fill:#263238;" width="9.498" height="45.921"/>
		</g>
		<g>
			<path style="fill:#455A64;" d="M628.32,313c-0.871-3.085,0.458-8.009,2.735-10.134c1.447-1.352,3.286-1.651,5.046-1.842
				c5.331-0.575,10.75-0.903,16.107-0.977c1.446-0.022,3.631-0.048,5.528,0.973c1.946,1.048,3.39,3.099,3.962,5.628
				c0.463,2.049,0.334,4.112,0.22,5.933l-3.992-0.25c0.102-1.628,0.208-3.312-0.129-4.801c-0.312-1.379-1.043-2.496-1.955-2.987
				c-0.911-0.49-2.158-0.521-3.58-0.495c-5.232,0.071-10.523,0.392-15.73,0.953c-1.134,0.123-2.198,0.275-2.747,0.789
				c-1.188,1.108-2.078,4.484-1.615,6.122L628.32,313z"/>
		</g>
		<g>
			<rect x="617.948" y="339.113" style="fill:#FFFFFF;" width="48.369" height="14.082"/>
		</g>
	</g>
</g>
<g id="Water_Bottle">
	<g>
		<g>
			<path style="fill:#263238;" d="M434.042,413.626c-0.301,0.409-1.071,20.977-2.981,22.341s-12.868,5.732-13.004,7.652v0.574
				l40.641,0.187v-4.296l-25.522,1.027c0,0,3.292-1.436,3.292-3.755c0-2.319-0.409-18.275-0.273-18.82
				C436.332,417.99,434.042,413.626,434.042,413.626z"/>
		</g>
		<g>
			<g>
				<path style="fill:#455A64;" d="M447.054,396.391c0,0-8.126,3.668-10.931,9.993c-2.806,6.325-2.631,12.058-2.503,17.314
					c0.128,5.256,4.635,21.714,21.724,20.631h1.785v-53.101h-8.672v4.458L447.054,396.391z"/>
			</g>
			<g>
				<path style="fill:#455A64;" d="M464.652,396.391c0,0,8.126,3.668,10.931,9.993c2.806,6.325,2.631,12.058,2.503,17.314
					s-4.635,21.714-21.724,20.631h-1.785v-53.101h8.672v4.458L464.652,396.391z"/>
			</g>
			<g>
				<g>
					<g>
						<path style="fill:#E0E0E0;" d="M462.682,389.756h-14.144v-7.08c0-0.926,0.751-1.677,1.677-1.677h10.79
							c0.926,0,1.677,0.751,1.677,1.677V389.756z"/>
					</g>
					<g>
						<path style="fill:#E0E0E0;" d="M463.737,391.746h-15.872c-0.508,0-0.92-0.412-0.92-0.92v-0.775c0-0.508,0.412-0.92,0.92-0.92
							h15.872c0.508,0,0.92,0.412,0.92,0.92v0.775C464.657,391.334,464.245,391.746,463.737,391.746z"/>
					</g>
				</g>
				<g>
					<g>
						<path style="fill:#455A64;" d="M463.669,389.131c0,0.144-3.432,0.26-7.664,0.26c-4.234,0-7.665-0.117-7.665-0.26
							c0-0.144,3.431-0.26,7.665-0.26C460.237,388.87,463.669,388.987,463.669,389.131z"/>
					</g>
				</g>
			</g>
		</g>
	</g>
</g>
<g id="Rock">
	<g>
		<g>
			<g>
				<g>
					<g>
						<polygon style="fill:#F5F5F5;" points="246.325,396.807 207.755,374.831 140.032,399.498 85.403,444.38 285.359,444.38 						
							"/>
					</g>
				</g>
			</g>
			<g>
				<g>
					<g>
						<polygon style="fill:#E0E0E0;" points="85.403,444.38 154.721,404.08 246.325,396.807 206.21,373.059 140.032,399.498 						
							"/>
					</g>
				</g>
			</g>
			<g>
				<g>
					<g>
						<polygon style="fill:#E0E0E0;" points="185.705,444.493 219.688,421.501 251.302,419.25 224.861,425.122 211.659,444.38 
													"/>
					</g>
				</g>
			</g>
			<g>
				<g>
					<g>
						<g>
							<path style="fill:#263238;" d="M252.383,418.775c0.004,0.053-0.883,0.168-2.503,0.33c-1.753,0.157-4.076,0.365-6.905,0.619
								c-5.995,0.462-14.111,1.088-23.258,1.793l0.205-0.072c-1.218,0.836-2.502,1.717-3.806,2.612
								c-8.52,5.839-16.259,11.085-21.884,14.848c-2.738,1.81-4.995,3.303-6.686,4.42c-0.731,0.463-1.338,0.848-1.842,1.167
								c-0.426,0.259-0.658,0.384-0.674,0.36c-0.016-0.024,0.183-0.195,0.579-0.499c0.479-0.355,1.057-0.782,1.753-1.296
								c1.652-1.173,3.859-2.74,6.535-4.64c5.539-3.888,13.225-9.211,21.745-15.05c1.305-0.893,2.591-1.772,3.809-2.607l0.094-0.065
								l0.111-0.007c9.154-0.598,17.277-1.128,23.277-1.52c2.837-0.15,5.166-0.273,6.923-0.366
								C251.485,418.734,252.379,418.722,252.383,418.775z"/>
						</g>
					</g>
				</g>
			</g>
		</g>
		<g>
			<g>
				<g>
					<g>
						<path style="fill:#263238;" d="M246.2,396.657c0,0,0.246,0.27,0.712,0.816c0.471,0.557,1.159,1.371,2.06,2.438
							c1.812,2.162,4.477,5.339,7.916,9.441c6.881,8.241,16.857,20.189,29.266,35.05l0.245,0.294l-0.383,0
							c-40.753-0.007-98.893-0.018-163.341-0.03c-12.712-0.01-25.178-0.019-37.271-0.029l-0.718-0.001l0.555-0.455
							c19.523-15.994,37.893-31.043,54.508-44.654l0.027-0.022l0.032-0.013c26.033-10.476,48.509-19.522,66.045-26.579l0.072-0.029
							l0.067,0.039c12.729,7.492,22.788,13.413,29.676,17.467c3.426,2.027,6.061,3.587,7.85,4.646
							c0.88,0.526,1.551,0.927,2.011,1.203C245.978,396.51,246.2,396.657,246.2,396.657s-0.241-0.124-0.7-0.385
							c-0.467-0.268-1.146-0.657-2.038-1.169c-1.8-1.044-4.451-2.58-7.898-4.579c-6.901-4.022-16.979-9.896-29.732-17.329
							l0.139,0.01c-17.521,7.092-39.98,16.182-65.992,26.71l0.059-0.035c-16.603,13.624-34.962,28.688-54.472,44.697l-0.163-0.455
							c12.093,0.007,24.559,0.014,37.271,0.022c64.448,0.076,122.588,0.144,163.34,0.192l-0.138,0.294
							c-12.349-14.898-22.276-26.874-29.124-35.135c-3.41-4.131-6.051-7.331-7.848-9.508c-0.887-1.083-1.564-1.91-2.027-2.475
							C246.424,396.953,246.2,396.657,246.2,396.657z"/>
					</g>
				</g>
			</g>
		</g>
	</g>
</g>
<g id="Bird">
	<g>
		<g>
			<g>
				<path style="fill:#263238;" d="M344.792,131.505c-0.022,0.063-1.11-0.383-3.164-0.839c-2.043-0.449-5.11-0.845-8.83-0.34
					c-3.693,0.494-8.069,1.979-11.898,5.132c-3.822,3.095-7.092,7.779-8.398,13.335c-0.013,0.05-0.026,0.101-0.038,0.148
					l-0.245,0.953l-0.366-0.904c-2.138-5.279-5.936-9.474-10.056-12.141c-4.13-2.716-8.573-3.841-12.28-4.094
					c-3.73-0.26-6.757,0.275-8.774,0.803c-2.025,0.534-3.095,1.005-3.119,0.944c-0.009-0.02,0.254-0.146,0.763-0.368
					c0.507-0.225,1.275-0.518,2.289-0.816c2.016-0.606,5.071-1.221,8.869-1.015c3.771,0.199,8.327,1.299,12.572,4.05
					c4.231,2.7,8.136,6.981,10.33,12.398l-0.611,0.049c0.012-0.048,0.026-0.1,0.039-0.152c1.344-5.713,4.715-10.503,8.651-13.649
					c3.947-3.206,8.447-4.678,12.211-5.122c3.795-0.456,6.899,0.019,8.946,0.547c1.029,0.259,1.812,0.526,2.328,0.737
					C344.533,131.366,344.8,131.484,344.792,131.505z"/>
			</g>
		</g>
	</g>
	<g>
		<g>
			<g>
				<path style="fill:#263238;" d="M417.691,61.894c0.038,0.039-0.501,0.594-1.419,1.638c-0.919,1.042-2.173,2.622-3.482,4.728
					c-2.632,4.157-5.265,10.773-5.175,18.361c0,0.079-0.001,0.158-0.002,0.231l-0.639,0.053c-1.099-7.464-5.016-13.41-8.453-16.849
					c-3.457-3.512-6.267-4.875-6.174-5.006c0.011-0.019,0.185,0.061,0.507,0.232c0.316,0.18,0.807,0.41,1.383,0.797
					c1.182,0.726,2.815,1.922,4.603,3.657c1.791,1.729,3.686,4.056,5.298,6.944c1.616,2.879,2.896,6.345,3.47,10.132l-0.638,0.053
					c0.001-0.074,0.001-0.155,0.002-0.236c-0.093-7.745,2.668-14.464,5.433-18.612c1.376-2.103,2.699-3.656,3.681-4.654
					c0.474-0.515,0.896-0.864,1.162-1.118C417.525,62,417.676,61.878,417.691,61.894z"/>
			</g>
		</g>
	</g>
	<g>
		<g>
			<g>
				<path style="fill:#263238;" d="M226.944,96.292c-0.02,0.053-0.624-0.174-1.753-0.407c-1.123-0.229-2.802-0.429-4.831-0.141
					c-2.015,0.283-4.394,1.103-6.474,2.825c-2.077,1.691-3.852,4.243-4.562,7.264l-0.021,0.08l-0.245,0.952l-0.366-0.903
					c-1.163-2.873-3.228-5.161-5.469-6.62c-2.246-1.486-4.664-2.11-6.689-2.262c-2.037-0.155-3.694,0.122-4.804,0.394
					c-1.114,0.276-1.71,0.517-1.731,0.465c-0.008-0.02,0.132-0.098,0.41-0.23c0.276-0.132,0.697-0.303,1.254-0.476
					c1.108-0.351,2.796-0.707,4.9-0.606c2.088,0.097,4.62,0.697,6.98,2.218c2.352,1.493,4.524,3.866,5.743,6.877l-0.611,0.049
					l0.022-0.084c0.747-3.177,2.625-5.836,4.815-7.578c2.197-1.775,4.7-2.582,6.787-2.815c2.104-0.24,3.82,0.039,4.946,0.347
					c0.567,0.152,0.995,0.308,1.277,0.433C226.808,96.198,226.952,96.272,226.944,96.292z"/>
			</g>
		</g>
	</g>
</g>
</svg>
